# File created by Blade
# Date/Time:  Wed Jan 21 19:19:18 2015
# Frame Rate: 120.000 fps
#------------------------------------------------------
:FULLY-SPECIFIED
:DEGREES
1181
root -0.030743 32.588417 -2.380720 43.758026 -1.675573 3.566312
RightUpLeg -43.399215 -18.328187 -1.804109
RightLeg 3.320948 -0.000000 -0.000000
RightFoot -9.192400 2.881266 19.240412
RightToeBase 22.171010 -0.000000 -0.000000
LeftUpLeg -45.157049 1.973231 -4.248791
LeftLeg 4.167194 -0.000000 -0.000000
LeftFoot -5.455236 -9.705760 -12.249099
LeftToeBase 11.220911 -0.000000 -0.000000
Spine -41.642689 0.903970 -3.807777
RightShoulder -18.474792 19.068997 -44.773245
RightArm 2.394338 -17.406860 44.787737
RightForeArm 5.574050 -0.000000 -5.655940
RightHand 18.862820 -0.000000 -7.294371
RightHandThumb1 -24.326973 -0.000000 -32.862282
LeftShoulder -13.676824 2.570734 40.613079
LeftArm 19.360522 -17.217573 -39.274965
LeftForeArm 12.010088 -0.000000 -1.389648
LeftHand -22.673116 -0.000000 6.550542
LeftHandThumb1 -26.253704 0.000000 33.147579
Head 12.969708 -6.410556 6.647918
1182
root -0.001142 32.603598 -2.314977 43.851624 -1.438018 3.350431
RightUpLeg -43.326964 -18.370827 -1.414823
RightLeg 3.259358 -0.000000 -0.000000
RightFoot -9.388319 2.682283 18.796979
RightToeBase 22.499180 -0.000000 -0.000000
LeftUpLeg -44.973526 2.047297 -4.024013
LeftLeg 3.796012 -0.000000 -0.000000
LeftFoot -5.156893 -10.090999 -12.800399
LeftToeBase 11.107464 -0.000000 -0.000000
Spine -41.869655 0.675629 -3.735565
RightShoulder -18.507611 19.010851 -44.661375
RightArm 2.361309 -17.574719 44.918300
RightForeArm 5.335575 -0.000000 -5.741436
RightHand 18.652125 -0.000000 -6.856564
RightHandThumb1 -24.326973 -0.000000 -32.862282
LeftShoulder -13.597308 2.637807 40.676111
LeftArm 19.545814 -17.408489 -39.070515
LeftForeArm 12.275308 -0.000000 -1.302551
LeftHand -22.740878 0.000000 6.755860
LeftHandThumb1 -26.253704 0.000000 33.147579
Head 12.902732 -6.576077 7.079911
1183
root 0.020173 32.623675 -2.247896 43.935573 -1.185012 3.068194
RightUpLeg -43.259708 -18.401295 -0.916830
RightLeg 3.199594 -0.000000 -0.000000
RightFoot -9.420939 2.598824 18.667514
RightToeBase 22.434858 -0.000000 -0.000000
LeftUpLeg -44.739144 2.298092 -3.867387
LeftLeg 3.355881 -0.000000 -0.000000
LeftFoot -4.902518 -10.579574 -13.047330
LeftToeBase 11.188554 -0.000000 -0.000000
Spine -42.093579 0.521252 -3.612542
RightShoulder -18.564048 18.725179 -44.550871
RightArm 2.478542 -17.565499 45.069462
RightForeArm 5.149560 -0.000000 -5.928090
RightHand 18.504046 -0.000000 -6.255261
RightHandThumb1 -24.326973 -0.000000 -32.862282
LeftShoulder -13.485461 2.625641 40.731868
LeftArm 19.686383 -17.468070 -38.858644
LeftForeArm 12.510942 0.000000 -1.219357
LeftHand -22.719158 -0.000000 6.897222
LeftHandThumb1 -26.253704 0.000000 33.147579
Head 12.850519 -6.708582 7.420179
1184
root 0.041413 32.645980 -2.183499 44.010211 -0.922359 2.766159
RightUpLeg -43.216941 -18.440820 -0.335846
RightLeg 3.141719 -0.000000 -0.000000
RightFoot -9.465244 2.431047 18.917540
RightToeBase 22.533982 -0.000000 -0.000000
LeftUpLeg -44.476476 2.482092 -3.653746
LeftLeg 2.863548 -0.000000 -0.000000
LeftFoot -4.668392 -10.861641 -13.109744
LeftToeBase 11.234166 -0.000000 -0.000000
Spine -42.297118 0.424582 -3.450322
RightShoulder -18.590100 18.473681 -44.511161
RightArm 2.471093 -17.482159 45.254815
RightForeArm 5.059520 0.000000 -6.019293
RightHand 17.873829 -0.000000 -5.561269
RightHandThumb1 -24.326973 -0.000000 -32.862282
LeftShoulder -13.390313 2.565206 40.721508
LeftArm 19.876063 -17.420954 -38.624896
LeftForeArm 12.612379 -0.000000 -1.188278
LeftHand -22.761816 -0.000000 7.066574
LeftHandThumb1 -26.253704 0.000000 33.147579
Head 12.720526 -6.859924 7.622432
1185
root 0.059912 32.670546 -2.120094 44.102270 -0.699146 2.386034
RightUpLeg -43.207213 -18.393455 0.309258
RightLeg 3.050109 -0.000000 -0.000000
RightFoot -9.354534 2.314520 19.886904
RightToeBase 22.609212 -0.000000 -0.000000
LeftUpLeg -44.201280 2.735113 -3.429209
LeftLeg 2.299297 -0.000000 -0.000000
LeftFoot -4.483955 -10.981888 -13.035048
LeftToeBase 11.228784 -0.000000 -0.000000
Spine -42.518042 0.398184 -3.241264
RightShoulder -18.597206 18.224115 -44.432363
RightArm 2.516165 -17.563565 45.362329
RightForeArm 5.088084 -0.000000 -6.310481
RightHand 17.611798 0.000000 -4.992809
RightHandThumb1 -24.326973 -0.000000 -32.862282
LeftShoulder -13.308232 2.486310 40.763229
LeftArm 20.019686 -17.336273 -38.458106
LeftForeArm 12.769902 0.000000 -1.161887
LeftHand -22.801851 -0.000000 7.128833
LeftHandThumb1 -26.253704 0.000000 33.147579
Head 12.573581 -6.979766 7.812501
1186
root 0.077491 32.698317 -2.058062 44.198149 -0.510385 1.963350
RightUpLeg -43.166229 -18.209255 0.918753
RightLeg 2.896070 -0.000000 -0.000000
RightFoot -9.265060 2.293272 20.269126
RightToeBase 22.604369 -0.000000 -0.000000
LeftUpLeg -43.941573 2.976801 -3.139627
LeftLeg 1.756422 -0.000000 -0.000000
LeftFoot -4.359194 -10.979086 -13.153274
LeftToeBase 11.419325 -0.000000 -0.000000
Spine -42.737072 0.440786 -3.002709
RightShoulder -18.625450 17.943502 -44.383493
RightArm 2.605543 -17.457244 45.460287
RightForeArm 4.909480 -0.000000 -6.655987
RightHand 17.229336 -0.000000 -4.134401
RightHandThumb1 -24.326973 -0.000000 -32.862282
LeftShoulder -13.262762 2.427736 40.783283
LeftArm 20.233485 -17.348042 -38.369595
LeftForeArm 12.978451 -0.000000 -1.206633
LeftHand -22.689646 0.000000 7.024680
LeftHandThumb1 -26.253704 0.000000 33.147579
Head 12.393953 -7.036344 7.947745
1187
root 0.092356 32.727895 -1.996457 44.290318 -0.355294 1.498776
RightUpLeg -43.100225 -17.901076 1.499830
RightLeg 2.697380 -0.000000 -0.000000
RightFoot -9.161440 2.405941 21.002757
RightToeBase 22.783813 -0.000000 -0.000000
LeftUpLeg -43.706701 3.298502 -2.863758
LeftLeg 1.272444 -0.000000 -0.000000
LeftFoot -4.264668 -10.986901 -13.226205
LeftToeBase 11.430067 -0.000000 -0.000000
Spine -42.946897 0.528304 -2.727864
RightShoulder -18.650896 17.837283 -44.370099
RightArm 2.561871 -17.272511 45.548836
RightForeArm 4.898938 -0.000000 -6.969765
RightHand 16.915842 -0.000000 -3.676659
RightHandThumb1 -24.326973 -0.000000 -32.862282
LeftShoulder -13.210190 2.310503 40.813680
LeftArm 20.360727 -17.156240 -38.227879
LeftForeArm 13.001874 -0.000000 -1.311532
LeftHand -22.572243 -0.000000 6.908017
LeftHandThumb1 -26.253704 0.000000 33.147579
Head 12.166573 -7.031404 8.042428
